<svg xmlns="http://www.w3.org/2000/svg" width="900" height="600" viewBox="0 0 900 600">
  <defs>
    <linearGradient id="bg" x1="0" y1="0" x2="1" y2="1">
      <stop offset="0%" stop-color="#0f172a"/>
      <stop offset="100%" stop-color="#12263f"/>
    </linearGradient>
  </defs>
  <rect width="900" height="600" rx="36" fill="url(#bg)"/>
  <rect x="155" y="235" width="590" height="150" rx="28" fill="#111827" stroke="#475569" stroke-width="4"/>
  <g fill="#38bdf8">
    <rect x="190" y="276" width="50" height="24" rx="6"/>
    <rect x="250" y="276" width="50" height="24" rx="6"/>
    <rect x="310" y="276" width="50" height="24" rx="6"/>
    <rect x="370" y="276" width="50" height="24" rx="6"/>
    <rect x="430" y="276" width="50" height="24" rx="6"/>
    <rect x="490" y="276" width="50" height="24" rx="6"/>
    <rect x="550" y="276" width="50" height="24" rx="6"/>
    <rect x="610" y="276" width="50" height="24" rx="6"/>
  </g>
  <circle cx="208" cy="334" r="11" fill="#22c55e"/>
  <circle cx="243" cy="334" r="11" fill="#22c55e"/>
  <circle cx="278" cy="334" r="11" fill="#22c55e"/>
  <rect x="322" y="324" width="220" height="10" rx="5" fill="#cbd5e1"/>
  <circle cx="730" cy="130" r="100" fill="#22c55e" opacity="0.13"/>
  <text x="450" y="532" text-anchor="middle" fill="#e2e8f0" font-family="Arial, sans-serif" font-size="34" font-weight="700">Network Switch</text>
</svg>