<svg xmlns="http://www.w3.org/2000/svg" width="900" height="600" viewBox="0 0 900 600">
  <defs>
    <linearGradient id="bg" x1="0" y1="0" x2="1" y2="1">
      <stop offset="0%" stop-color="#0f172a"/>
      <stop offset="100%" stop-color="#102b43"/>
    </linearGradient>
    <linearGradient id="metal" x1="0" y1="0" x2="1" y2="1">
      <stop offset="0%" stop-color="#f8fafc"/>
      <stop offset="100%" stop-color="#94a3b8"/>
    </linearGradient>
  </defs>
  <rect width="900" height="600" rx="36" fill="url(#bg)"/>
  <circle cx="720" cy="120" r="104" fill="#38bdf8" opacity="0.14"/>
  <circle cx="170" cy="470" r="132" fill="#22c55e" opacity="0.10"/>
  <g transform="translate(150 170) rotate(-15 300 120)">
    <rect x="110" y="112" width="360" height="56" rx="28" fill="url(#metal)"/>
    <rect x="212" y="80" width="156" height="118" rx="24" fill="url(#metal)"/>
    <rect x="75" y="146" width="120" height="26" rx="13" fill="#f97316"/>
    <rect x="430" y="146" width="120" height="26" rx="13" fill="#f97316"/>
    <path d="M90 157 C54 170, 44 214, 64 242 C82 266, 114 262, 141 246 L176 226" fill="none" stroke="#f97316" stroke-width="20" stroke-linecap="round"/>
    <path d="M455 157 C492 170, 503 214, 483 242 C465 266, 433 262, 406 246 L371 226" fill="none" stroke="#f97316" stroke-width="20" stroke-linecap="round"/>
    <circle cx="260" cy="140" r="28" fill="#0b1220"/>
    <circle cx="316" cy="140" r="28" fill="#0b1220"/>
    <rect x="232" y="126" width="76" height="28" rx="12" fill="#38bdf8"/>
  </g>
  <text x="450" y="532" text-anchor="middle" fill="#e2e8f0" font-family="Arial, sans-serif" font-size="34" font-weight="700">Crimping Tool</text>
</svg>