<svg xmlns="http://www.w3.org/2000/svg" width="900" height="600" viewBox="0 0 900 600">
  <defs>
    <linearGradient id="bg" x1="0" y1="0" x2="1" y2="1">
      <stop offset="0%" stop-color="#0f172a"/>
      <stop offset="100%" stop-color="#10263d"/>
    </linearGradient>
  </defs>
  <rect width="900" height="600" rx="36" fill="url(#bg)"/>
  <circle cx="740" cy="130" r="108" fill="#38bdf8" opacity="0.16"/>
  <rect x="215" y="292" width="470" height="112" rx="34" fill="#111827" stroke="#334155" stroke-width="4"/>
  <rect x="252" y="322" width="34" height="34" rx="8" fill="#22c55e"/>
  <rect x="294" y="322" width="34" height="34" rx="8" fill="#38bdf8"/>
  <rect x="336" y="322" width="34" height="34" rx="8" fill="#f97316"/>
  <rect x="378" y="322" width="34" height="34" rx="8" fill="#eab308"/>
  <rect x="420" y="322" width="34" height="34" rx="8" fill="#8b5cf6"/>
  <rect x="462" y="322" width="34" height="34" rx="8" fill="#ef4444"/>
  <rect x="504" y="322" width="34" height="34" rx="8" fill="#14b8a6"/>
  <rect x="546" y="322" width="34" height="34" rx="8" fill="#f43f5e"/>
  <path d="M356 260 C356 185, 404 150, 448 145" stroke="#cbd5e1" stroke-width="14" fill="none" stroke-linecap="round"/>
  <path d="M448 260 C448 182, 480 150, 540 135" stroke="#cbd5e1" stroke-width="14" fill="none" stroke-linecap="round"/>
  <path d="M530 260 C556 190, 616 156, 662 164" stroke="#cbd5e1" stroke-width="14" fill="none" stroke-linecap="round"/>
  <circle cx="448" cy="145" r="16" fill="#38bdf8"/>
  <circle cx="540" cy="135" r="16" fill="#22c55e"/>
  <circle cx="662" cy="164" r="16" fill="#f97316"/>
  <text x="450" y="532" text-anchor="middle" fill="#e2e8f0" font-family="Arial, sans-serif" font-size="34" font-weight="700">Router</text>
</svg>